<svg id="Layer_1" data-name="Layer 1" xmlns="http://www.w3.org/2000/svg" viewBox="0 0 512 512"><defs><style>.cls-1{fill:#141f38;}</style></defs><title>browser-15-outline</title><path class="cls-1" d="M448,0H64A64,64,0,0,0,0,64V448a64,64,0,0,0,64,64H448a64,64,0,0,0,64-64V64A64,64,0,0,0,448,0Zm38.4,448A38.44,38.44,0,0,1,448,486.4H64A38.44,38.44,0,0,1,25.6,448V140.8H486.4ZM25.6,115.2V64A38.44,38.44,0,0,1,64,25.6H448A38.44,38.44,0,0,1,486.4,64v51.2Z"/><circle class="cls-1" cx="70.4" cy="70.4" r="19.2"/><circle class="cls-1" cx="121.6" cy="70.4" r="19.2"/><circle class="cls-1" cx="172.8" cy="70.4" r="19.2"/><path class="cls-1" d="M192,384H320a12.8,12.8,0,1,0,0-25.6H192a12.8,12.8,0,1,0,0,25.6Z"/><path class="cls-1" d="M256,320a64,64,0,1,0-64-64A64,64,0,0,0,256,320Zm0-102.4A38.4,38.4,0,1,1,217.6,256,38.44,38.44,0,0,1,256,217.6Z"/><path class="cls-1" d="M294.4,409.6H217.6a12.8,12.8,0,1,0,0,25.6h76.8a12.8,12.8,0,1,0,0-25.6Z"/></svg>